HIERARCHY
ROOT Hips
{
	OFFSET -0.001795 -0.223333 0.028219
	CHANNELS 6 Xposition Yposition Zposition Zrotation Yrotation Xrotation
	JOINT LeftUpLeg
	{
		OFFSET 0.069520 -0.091406 -0.006815
		CHANNELS 3 Zrotation Yrotation Xrotation
		JOINT LeftLeg
		{
			OFFSET 0.034277 -0.375199 -0.004496
			CHANNELS 3 Zrotation Yrotation Xrotation
			JOINT LeftFoot
			{
				OFFSET -0.013596 -0.397961 -0.043693
				CHANNELS 3 Zrotation Yrotation Xrotation
				JOINT LeftToe
				{
					OFFSET 0.026358 -0.055791 0.119288
					CHANNELS 3 Zrotation Yrotation Xrotation
					End Site
					{
						OFFSET 0.000000 0.000000 0.000000
					}
				}
			}
		}
	}
	JOINT RightUpLeg
	{
		OFFSET -0.067670 -0.090522 -0.004320
		CHANNELS 3 Zrotation Yrotation Xrotation
		JOINT RightLeg
		{
			OFFSET -0.038290 -0.382569 -0.008850
			CHANNELS 3 Zrotation Yrotation Xrotation
			JOINT RightFoot
			{
				OFFSET 0.015774 -0.398415 -0.042312
				CHANNELS 3 Zrotation Yrotation Xrotation
				JOINT RightToe
				{
					OFFSET -0.025372 -0.048144 0.123348
					CHANNELS 3 Zrotation Yrotation Xrotation
					End Site
					{
						OFFSET 0.000000 0.000000 0.000000
					}
				}
			}
		}
	}
	JOINT Spine
	{
		OFFSET -0.002533 0.108963 -0.026696
		CHANNELS 3 Zrotation Yrotation Xrotation
		JOINT Spine1
		{
			OFFSET 0.005487 0.135180 0.001092
			CHANNELS 3 Zrotation Yrotation Xrotation
			JOINT Spine2
			{
				OFFSET 0.001457 0.052922 0.025425
				CHANNELS 3 Zrotation Yrotation Xrotation
				JOINT Neck
				{
					OFFSET -0.002778 0.213870 -0.042857
					CHANNELS 3 Zrotation Yrotation Xrotation
					JOINT Head
					{
						OFFSET 0.005152 0.064970 0.051349
						CHANNELS 3 Zrotation Yrotation Xrotation
						End Site
						{
							OFFSET 0.000000 0.000000 0.000000
						}
					}
				}
				JOINT LeftShoulder
				{
					OFFSET 0.078845 0.121749 -0.034090
					CHANNELS 3 Zrotation Yrotation Xrotation
					JOINT LeftArm
					{
						OFFSET 0.090977 0.030469 -0.008868
						CHANNELS 3 Zrotation Yrotation Xrotation
						JOINT LeftForeArm
						{
							OFFSET 0.259612 -0.012772 -0.027456
							CHANNELS 3 Zrotation Yrotation Xrotation
							JOINT LeftHand
							{
								OFFSET 0.249234 0.008986 -0.001171
								CHANNELS 3 Zrotation Yrotation Xrotation
								End Site
								{
									OFFSET 0.000000 0.000000 0.000000
								}
							}
						}
					}
				}
				JOINT RightShoulder
				{
					OFFSET -0.081759 0.118833 -0.038615
					CHANNELS 3 Zrotation Yrotation Xrotation
					JOINT RightArm
					{
						OFFSET -0.096012 0.032551 -0.009143
						CHANNELS 3 Zrotation Yrotation Xrotation
						JOINT RightForeArm
						{
							OFFSET -0.253742 -0.013329 -0.021401
							CHANNELS 3 Zrotation Yrotation Xrotation
							JOINT RightHand
							{
								OFFSET -0.255298 0.007772 -0.005559
								CHANNELS 3 Zrotation Yrotation Xrotation
								End Site
								{
									OFFSET 0.000000 0.000000 0.000000
								}
							}
						}
					}
				}
			}
		}
	}
}
MOTION
Frames: 11
Frame Time: 0.050000
0.000000 0.142529 0.000000 35.100105 -12.126510 62.400766 12.112612 -1.742658 -14.014928 -4.086696 1.699734 38.754985 -0.404957 -9.945106 -14.475329 0.000000 0.000000 0.000000 20.235249 -2.666232 -4.616771 -23.163237 15.287395 45.236799 -8.100132 -2.990880 -35.498734 0.000000 0.000000 0.000000 18.532529 -13.507208 42.441304 -21.884502 -1.597138 -61.334304 -7.723084 -13.033546 16.943965 15.757533 -7.371369 12.904110 0.000000 0.000000 0.000000 -48.652695 -16.486092 24.147529 -2.340085 -14.012803 -1.606065 121.006363 -55.033068 -78.053080 0.000000 0.000000 0.000000 13.816678 3.376224 -3.952377 11.118711 3.877927 -0.075902 -139.527170 21.163289 -49.546585 0.000000 0.000000 0.000000
-0.000357 0.140245 0.001662 37.638879 -14.722511 60.606069 8.916083 -1.495127 -15.262836 -5.260414 2.846694 37.301637 -1.454182 -2.914142 1.298616 0.000000 0.000000 0.000000 19.618860 -2.033894 -7.149854 -26.592651 20.289040 48.428588 -4.926471 -2.939456 -16.810600 0.000000 0.000000 0.000000 16.720670 -11.767454 42.940080 -20.279688 0.037582 -54.438259 -10.415793 -15.565038 9.285060 6.987308 -0.323043 3.984612 0.000000 0.000000 0.000000 -45.232568 -11.649966 21.292595 -4.144247 -13.732934 -1.634886 130.604318 -50.603412 -80.353514 0.000000 0.000000 0.000000 -4.386649 -3.556856 -0.973943 22.750026 11.531144 0.842910 -135.443727 22.010678 -53.678058 0.000000 0.000000 0.000000
-0.000482 0.143062 0.002426 40.011967 -12.837981 60.124141 13.555230 -1.700132 -15.712962 -7.937872 3.073549 34.833170 -5.890334 -12.065203 2.308286 0.000000 0.000000 0.000000 23.819555 -1.749018 -8.810859 -29.939467 23.558092 53.418444 -4.830770 -1.683149 -19.487499 0.000000 0.000000 0.000000 20.898061 -14.772188 42.184933 -25.095765 -0.626538 -54.162275 -10.507083 -18.690363 10.209162 7.280791 -1.360241 2.050197 0.000000 0.000000 0.000000 -42.660884 -9.346679 19.042402 -7.902590 -12.450513 -1.715996 141.865538 -53.169376 -97.919689 0.000000 0.000000 0.000000 -7.185901 -5.289281 -0.136313 14.132197 11.183727 -0.020343 -138.131642 22.193430 -56.267415 0.000000 0.000000 0.000000
-0.000897 0.136762 0.003237 42.351737 -15.277477 58.423412 11.729664 -1.550775 -15.927525 -7.930635 3.108988 32.464939 -5.850137 -7.134063 10.769158 0.000000 0.000000 0.000000 22.943428 -1.484443 -9.075335 -29.916597 24.330598 53.039117 -2.797553 -0.537125 -10.961652 0.000000 0.000000 0.000000 19.987933 -13.249432 41.045357 -24.383208 0.370666 -50.638509 -12.702745 -19.381061 9.345203 5.225360 -0.375626 -4.578627 0.000000 0.000000 0.000000 -42.519790 -8.606347 19.745065 -8.635909 -13.020065 -1.936273 142.819649 -51.367434 -96.023329 0.000000 0.000000 0.000000 -14.672959 -8.910272 2.094904 12.525520 15.163934 -0.212553 -132.388415 20.353603 -49.985850 0.000000 0.000000 0.000000
-0.000974 0.138437 0.003157 42.546694 -16.179703 58.454880 11.205664 -1.442642 -18.598066 -6.911879 3.304078 36.562622 -2.796790 -3.849007 5.673618 0.000000 0.000000 0.000000 23.358117 -1.191019 -10.347588 -31.522326 27.242319 54.843476 -3.435741 1.770542 -16.017711 0.000000 0.000000 0.000000 20.251638 -12.988514 40.183407 -23.096171 0.953459 -47.975931 -13.383952 -18.091163 9.263758 8.186373 -1.505631 -7.315610 0.000000 0.000000 0.000000 -43.976736 -9.129954 20.773623 -11.727952 -12.532205 -2.108050 140.762276 -52.594691 -94.557092 0.000000 0.000000 0.000000 -18.465282 -8.949751 3.549199 9.017092 14.929889 -0.633362 -126.134458 25.089591 -53.847870 0.000000 0.000000 0.000000
-0.000957 0.135837 0.002510 40.529214 -19.758450 59.700167 11.948830 -1.041395 -19.996128 -10.053530 6.118968 37.510737 -0.186795 0.976974 5.672849 0.000000 0.000000 0.000000 24.585674 -1.064071 -11.435461 -37.930711 34.231373 53.255888 -3.762948 6.602616 -20.030860 0.000000 0.000000 0.000000 18.906606 -11.514562 41.172098 -22.949576 1.214371 -48.582247 -13.701984 -14.368077 8.975560 9.802701 -2.091068 -8.253941 0.000000 0.000000 0.000000 -47.698086 -9.545625 21.708764 -9.839538 -12.945500 -2.093087 140.404292 -54.745008 -97.657167 0.000000 0.000000 0.000000 -21.703065 -9.076554 4.574921 5.152706 14.639925 -1.011816 -119.269312 26.821057 -50.073350 0.000000 0.000000 0.000000
-0.000662 0.134209 0.001123 42.739688 -19.540545 57.211500 13.186811 -0.843306 -21.860908 -9.890925 6.648650 40.536503 -0.796580 -1.700924 1.585824 0.000000 0.000000 0.000000 25.474584 -1.129848 -11.541644 -37.350609 37.399677 58.604796 -6.016324 5.840691 -28.174507 0.000000 0.000000 0.000000 20.329821 -12.238199 41.519799 -21.687070 1.539209 -46.133359 -16.507143 -14.006795 8.379302 13.511754 -3.923000 -1.649928 0.000000 0.000000 0.000000 -50.561953 -10.685701 23.671743 -7.723728 -12.469839 -1.976741 137.318976 -53.013211 -92.609086 0.000000 0.000000 0.000000 -23.448314 -7.905019 5.414944 1.213619 13.356123 -1.294423 -114.905103 31.066461 -52.579985 0.000000 0.000000 0.000000
0.000217 0.128124 -0.000406 43.794932 -20.377343 56.662435 14.302937 -0.621261 -23.286998 -10.732170 7.923136 42.955673 -1.913746 -5.553637 -1.122175 0.000000 0.000000 0.000000 24.193588 -0.790041 -12.707726 -33.731915 38.180769 64.165046 -7.029269 5.406287 -32.123940 0.000000 0.000000 0.000000 20.288351 -11.829990 40.233439 -21.816418 1.823360 -43.934733 -17.671764 -13.389071 7.790283 15.904686 -5.325610 4.710123 0.000000 0.000000 0.000000 -51.848308 -10.779017 23.696983 -4.513686 -12.751127 -1.807699 136.344848 -52.248239 -90.954433 0.000000 0.000000 0.000000 -24.089295 -7.831871 5.610936 -2.958281 12.453434 -1.653406 -111.653528 31.882309 -50.162569 0.000000 0.000000 0.000000
0.001068 0.120389 -0.001653 44.448479 -20.622741 55.516084 15.161735 -0.522878 -22.937969 -10.254464 7.789215 42.906563 -2.505048 -9.371288 -5.263288 0.000000 0.000000 0.000000 23.877489 -0.687778 -12.888798 -28.754592 37.864422 70.547171 -8.354252 2.451300 -37.632957 0.000000 0.000000 0.000000 19.948927 -11.425656 39.916180 -20.945999 1.958228 -42.851642 -19.301466 -12.387785 7.698837 16.772776 -6.565963 7.029635 0.000000 0.000000 0.000000 -50.766184 -11.300552 22.757253 -4.042877 -13.312859 -1.791337 141.095460 -52.807530 -97.582284 0.000000 0.000000 0.000000 -24.720459 -7.631766 5.665112 -4.416848 12.979721 -1.858050 -113.177367 34.524315 -54.003242 0.000000 0.000000 0.000000
0.001535 0.111598 -0.002501 46.547044 -20.671849 53.335568 15.996548 -0.520539 -22.361063 -10.777580 8.180072 42.682025 -1.271872 -9.875726 -11.723619 0.000000 0.000000 0.000000 24.013326 -1.013036 -12.104649 -23.732929 37.695812 77.859201 -9.680550 -2.309088 -45.797258 0.000000 0.000000 0.000000 20.193317 -11.419631 39.671632 -22.754094 2.018585 -42.352403 -20.264033 -13.092579 6.858593 16.705500 -7.820994 17.089421 0.000000 0.000000 0.000000 -50.358023 -11.843522 22.559595 -3.585827 -11.592137 -1.484828 143.898639 -53.862358 -103.295333 0.000000 0.000000 0.000000 -23.764133 -6.232096 5.754503 -5.348959 12.091229 -1.928472 -115.791048 37.536433 -59.717805 0.000000 0.000000 0.000000
0.001510 0.102687 -0.003091 48.464335 -20.166423 51.043127 16.568606 -0.727692 -20.298788 -10.875114 7.853725 41.228601 -1.669918 -12.362577 -13.650803 0.000000 0.000000 0.000000 23.834190 -1.930536 -9.064541 -22.497187 35.587585 77.105776 -10.041903 -4.646677 -48.463516 0.000000 0.000000 0.000000 20.250343 -11.452172 40.197745 -23.534353 2.194791 -41.504783 -21.190218 -15.521206 7.090247 14.660371 -5.843956 16.050995 0.000000 0.000000 0.000000 -48.612354 -11.060408 22.286529 -3.428071 -13.902300 -1.707243 144.690171 -54.099271 -104.047218 0.000000 0.000000 0.000000 -22.925233 -7.087282 5.562893 -4.089372 15.079328 -2.276037 -121.113523 39.736788 -68.845558 0.000000 0.000000 0.000000
